<?xml version="1.0" standalone="no"?>
<!DOCTYPE svg PUBLIC "-//W3C//DTD SVG 20010904//EN"
 "http://www.w3.org/TR/2001/REC-SVG-20010904/DTD/svg10.dtd">
<svg version="1.0" xmlns="http://www.w3.org/2000/svg"
 width="95.000000pt" height="78.000000pt" viewBox="0 0 325.000000 78.000000"
 preserveAspectRatio="xMidYMid meet">

<g transform="translate(0.000000,78.000000) scale(0.100000,-0.100000)"
fill="#000000" stroke="none">
<path d="M1575 1653 c-95 -26 -152 -75 -125 -108 17 -20 23 -19 99 11 79 32
137 29 211 -12 50 -27 76 -27 86 1 10 25 -24 65 -74 86 -47 20 -159 33 -197
22z"/>
<path d="M1966 1528 c-14 -20 -15 -50 -10 -238 4 -118 11 -221 17 -227 13 -17
52 -16 66 0 6 8 14 29 17 48 8 38 30 69 51 69 7 0 42 -26 77 -59 70 -65 95
-77 126 -61 35 19 25 55 -24 89 -56 39 -96 86 -96 114 0 26 26 70 85 147 54
70 58 84 36 112 -16 19 -23 21 -46 13 -21 -7 -43 -37 -87 -114 -72 -127 -74
-131 -104 -131 -31 0 -37 24 -32 152 l3 103 -32 3 c-23 2 -35 -3 -47 -20z"/>
<path d="M932 1528 c-24 -24 -11 -76 57 -220 38 -80 72 -160 76 -176 7 -35 47
-82 68 -82 28 0 55 36 76 100 12 36 50 115 86 175 80 135 94 194 50 212 -31
11 -62 -14 -80 -64 -29 -82 -97 -213 -116 -223 -28 -15 -64 40 -104 160 -19
56 -40 109 -46 116 -14 17 -51 18 -67 2z"/>
<path d="M2551 1470 c-45 -11 -82 -39 -106 -82 -10 -20 -33 -42 -50 -50 -44
-19 -42 -59 4 -74 22 -7 38 -21 46 -40 25 -59 92 -94 180 -94 87 0 137 36 119
85 -7 18 -6 18 -124 0 -38 -6 -50 -3 -75 17 l-30 23 88 5 c72 5 91 9 109 28
27 27 29 89 4 127 -29 45 -102 69 -165 55z m99 -95 c6 -8 9 -19 5 -25 -8 -13
-135 -14 -135 -1 0 34 106 55 130 26z"/>
<path d="M650 1453 c-19 -10 -51 -39 -70 -65 -19 -27 -43 -48 -53 -48 -29 0
-57 -19 -57 -38 0 -25 20 -42 47 -42 16 0 27 -9 36 -32 39 -91 155 -134 252
-93 41 17 51 35 35 65 -10 19 -16 20 -84 14 -67 -6 -75 -5 -95 15 -11 11 -21
24 -21 29 0 4 33 6 73 4 61 -3 77 0 99 17 34 27 43 69 24 114 -27 67 -117 96
-186 60z m98 -75 c7 -7 12 -20 12 -30 0 -15 -9 -18 -55 -18 -61 0 -68 9 -29
39 30 24 54 27 72 9z"/>
<path d="M1560 1449 c-125 -52 -136 -240 -17 -298 57 -28 140 -28 185 -1 54
33 74 75 70 147 -4 67 -21 100 -71 137 -31 23 -128 32 -167 15z m141 -78 c27
-21 31 -80 10 -120 -25 -46 -115 -52 -146 -8 -24 34 -19 94 10 122 30 31 92
34 126 6z"/>
<path d="M1404 1066 c-17 -14 -18 -17 -4 -42 30 -56 168 -102 269 -90 58 7
133 36 163 63 24 21 23 50 -2 63 -17 9 -33 5 -85 -19 -92 -44 -152 -42 -239 4
-76 40 -76 40 -102 21z"/>
</g>
</svg>